Coordinates
version=1
nRows=32
nColumns=12
inDegrees=yes

Units are S.I. units (second, meters, Newtons, ...)
Angles are in degrees

endheader
time	SC_y	SC_z	SC_x	AC_y	AC_z	AC_x	GH_y	GH_z	GH_yy	EL_x	PS_y
       0.0              -36.49          11.18          10.96           39.6         -9.984          3.424         -79.05          51.14          72.15          37.82          57.51
   0.02121               -36.5          11.18          10.96           39.6         -9.983          3.422         -79.04          51.15          72.11          37.82          57.52
   0.04242               -36.5          11.18          10.96          39.59         -9.982          3.419         -79.03          51.15          72.08          37.82          57.53
   0.06363               -36.5          11.18          10.97          39.59         -9.981          3.417         -79.03          51.15          72.04          37.83          57.53
   0.08483              -36.51          11.19          10.97          39.59          -9.98          3.415         -79.02          51.15          72.01          37.83          57.54
     0.106              -36.51          11.19          10.97          39.59          -9.98          3.412         -79.01          51.16          71.97          37.83          57.55
    0.1273              -36.51          11.19          10.98          39.59         -9.979          3.409          -79.0          51.16          71.92          37.83          57.56
    0.1485              -36.52          11.19          10.98          39.59         -9.978          3.406         -78.99          51.16          71.88          37.83          57.56
    0.1697              -36.52          11.19          10.99          39.58         -9.977          3.403         -78.98          51.17          71.83          37.84          57.57
    0.1909              -36.53          11.19          10.99          39.58         -9.975          3.399         -78.96          51.17          71.77          37.84          57.58
    0.2121              -36.53           11.2           11.0          39.58         -9.974          3.396         -78.95          51.17          71.72          37.84          57.59
    0.2333              -36.54           11.2           11.0          39.58         -9.973          3.392         -78.94          51.18          71.66          37.84           57.6
    0.2545              -36.55           11.2          11.01          39.57         -9.971          3.387         -78.92          51.18          71.59          37.85          57.62
    0.2757              -36.55           11.2          11.02          39.57          -9.97          3.382         -78.91          51.19          71.52          37.85          57.63
    0.2969              -36.56          11.21          11.02          39.57         -9.968          3.377         -78.89          51.19          71.44          37.85          57.64
    0.3181              -36.57          11.21          11.03          39.56         -9.966          3.372         -78.87           51.2          71.36          37.86          57.66
    0.3393              -36.58          11.21          11.04          39.56         -9.964          3.366         -78.85           51.2          71.27          37.86          57.68
    0.3605              -36.58          11.22          11.05          39.56         -9.962          3.359         -78.82          51.21          71.17          37.86           57.7
    0.3818              -36.59          11.22          11.06          39.55          -9.96          3.352          -78.8          51.22          71.06          37.87          57.72
     0.403              -36.61          11.23          11.07          39.55         -9.957          3.344         -78.77          51.22          70.94          37.87          57.74
    0.4242              -36.62          11.23          11.08          39.54         -9.954          3.336         -78.74          51.23          70.81          37.88          57.76
    0.4454              -36.63          11.24           11.1          39.54         -9.951          3.326         -78.71          51.24          70.67          37.88          57.79
    0.4666              -36.65          11.24          11.11          39.53         -9.947          3.316         -78.67          51.25          70.51          37.89          57.82
    0.4878              -36.66          11.25          11.13          39.52         -9.943          3.304         -78.63          51.26          70.33           37.9          57.85
     0.509              -36.68          11.26          11.14          39.51         -9.939          3.292         -78.59          51.27          70.14          37.91          57.89
    0.5302               -36.7          11.26          11.16          39.51         -9.934          3.277         -78.54          51.29          69.92          37.92          57.93
    0.5514              -36.72          11.27          11.19           39.5         -9.929          3.261         -78.48           51.3          69.68          37.93          57.97
    0.5726              -36.75          11.28          11.21          39.48         -9.923          3.243         -78.42          51.32           69.4          37.94          58.02
    0.5938              -36.78          11.29          11.24          39.47         -9.916          3.223         -78.35          51.34          69.09          37.95          58.08
    0.6151              -36.81          11.31          11.27          39.46         -9.908            3.2         -78.27          51.37          68.74          37.97          58.15
    0.6363              -36.85          11.32          11.31          39.44         -9.899          3.173         -78.17          51.39          68.34          37.98          58.22
    0.6575              -36.89          11.34          11.35          39.42         -9.889          3.143         -78.07          51.42          67.88           38.0          58.31
